<svg width="223" height="67" viewBox="0 0 223 67" fill="none" xmlns="http://www.w3.org/2000/svg">
  <path d="M70.501 34.3646H66.326V41.1146H63.301V23.8896H70.601C72.651 23.8896 75.551 25.5896 75.551 28.9896C75.551 33.5396 72.251 34.3646 70.501 34.3646ZM66.326 31.8146H70.526C71.201 31.8146 72.576 31.2396 72.576 28.9896C72.576 27.4146 71.451 26.4646 70.601 26.4646H66.326V31.8146ZM92.4336 33.5146V37.4896C92.4336 38.0646 92.6336 38.5646 93.6086 38.5646H100.384V41.1146H93.4586C90.6836 41.0396 89.4586 40.1896 89.4086 37.6146V23.8896H100.384V26.4396H92.4336V30.9646H99.8336V33.5146H92.4336ZM117.886 28.5896V41.1146H114.861V23.8896H117.861C120.161 26.7896 123.236 31.3896 125.236 35.6396V23.8896H128.261V41.1146H125.236C123.236 37.1146 121.011 33.0646 117.886 28.5896ZM149.483 41.1146H143.533V23.8896H149.483C153.658 23.8896 157.533 26.8146 157.533 32.5396C157.533 38.3396 153.658 41.1146 149.483 41.1146ZM146.558 38.5646H148.433C152.333 38.5646 154.383 36.5146 154.383 32.5396C154.383 28.6146 152.508 26.4396 148.433 26.4396H146.558V38.5646ZM174.839 23.8896V37.2646C174.839 37.9646 175.089 38.5646 176.264 38.5646H182.989V41.1146H175.864C173.089 41.0396 171.864 40.1896 171.814 37.6146V23.8896H174.839ZM199.483 33.5146V37.4896C199.483 38.0646 199.683 38.5646 200.658 38.5646H207.433V41.1146H200.508C197.733 41.0396 196.508 40.1896 196.458 37.6146V23.8896H207.433V26.4396H199.483V30.9646H206.883V33.5146H199.483Z" fill="#1E4480"/>
  <circle cx="23.0588" cy="48.1062" r="9.05885" fill="#1E4480"/>
  <mask id="mask0_2584_2199" style="mask-type:alpha" maskUnits="userSpaceOnUse" x="22" y="16" width="3" height="26">
    <path fill-rule="evenodd" clip-rule="evenodd" d="M22.0624 41.2116L22.0624 16.9338L24.0818 16.9338L24.0818 41.2116L22.0624 41.2116Z" fill="white"/>
  </mask>
  <g mask="url(#mask0_2584_2199)">
    <path d="M46.9333 32.4666C46.9333 41.5608 39.561 48.9331 30.4667 48.9331C21.3725 48.9331 14.0002 41.5608 14.0002 32.4666C14.0002 23.3723 21.3725 16 30.4667 16C39.561 16 46.9333 23.3723 46.9333 32.4666Z" fill="white"/>
  </g>
  <circle cx="30.4667" cy="32.4666" r="16.4666" fill="#DEDEDE"/>
  <mask id="mask1_2584_2199" style="mask-type:alpha" maskUnits="userSpaceOnUse" x="14" y="16" width="33" height="33">
    <circle cx="30.4667" cy="32.4666" r="16.4666" fill="#DEDEDE"/>
  </mask>
  <g mask="url(#mask1_2584_2199)">
    <circle cx="23.0588" cy="48.1062" r="9.05885" fill="#152E51"/>
    <mask id="mask2_2584_2199" style="mask-type:alpha" maskUnits="userSpaceOnUse" x="22" y="16" width="3" height="26">
      <path fill-rule="evenodd" clip-rule="evenodd" d="M22.0624 41.2116L22.0624 16.9338L24.0818 16.9338L24.0818 41.2116L22.0624 41.2116Z" fill="#152E51"/>
    </mask>
    <g mask="url(#mask2_2584_2199)">
      <path d="M46.9333 32.4666C46.9333 41.5608 39.561 48.9331 30.4667 48.9331C21.3725 48.9331 14.0002 41.5608 14.0002 32.4666C14.0002 23.3723 21.3725 16 30.4667 16C39.561 16 46.9333 23.3723 46.9333 32.4666Z" fill="#152E51"/>
    </g>
  </g>
</svg>
