<?xml version="1.0" encoding="UTF-8"?>
<!DOCTYPE svg PUBLIC "-//W3C//DTD SVG 1.1//EN" "http://www.w3.org/Graphics/SVG/1.1/DTD/svg11.dtd">
<svg xmlns="http://www.w3.org/2000/svg" version="1.1" width="256px" height="256px" style="shape-rendering:geometricPrecision; text-rendering:geometricPrecision; image-rendering:optimizeQuality; fill-rule:evenodd; clip-rule:evenodd" xmlns:xlink="http://www.w3.org/1999/xlink">
<g><path style="opacity:0.922" fill="#7c5fe8" d="M 109.5,-0.5 C 113.167,-0.5 116.833,-0.5 120.5,-0.5C 120.961,1.5504 121.628,3.5504 122.5,5.5C 126.647,6.16699 130.647,6.83365 134.5,7.5C 123.753,7.13975 113.086,7.80641 102.5,9.5C 101.504,9.58577 100.671,9.25244 100,8.5C 99.0617,6.51153 98.2283,4.51153 97.5,2.5C 101.593,1.49198 105.593,0.491976 109.5,-0.5 Z"/></g>
<g><path style="opacity:0.9" fill="#8e5ded" d="M 120.5,-0.5 C 128.833,-0.5 137.167,-0.5 145.5,-0.5C 150.56,0.579117 155.56,1.91245 160.5,3.5C 159.957,3.55999 159.624,3.89333 159.5,4.5C 161.918,7.24585 163.918,10.2459 165.5,13.5C 155.373,10.4747 145.04,8.47472 134.5,7.5C 130.647,6.83365 126.647,6.16699 122.5,5.5C 121.628,3.5504 120.961,1.5504 120.5,-0.5 Z"/></g>
<g><path style="opacity:0.915" fill="#6a62e4" d="M 97.5,2.5 C 98.2283,4.51153 99.0617,6.51153 100,8.5C 100.671,9.25244 101.504,9.58577 102.5,9.5C 89.2328,12.7936 76.5662,17.7936 64.5,24.5C 64.4403,21.6592 63.7736,18.9925 62.5,16.5C 73.3167,9.8903 84.9834,5.22363 97.5,2.5 Z"/></g>
<g><path style="opacity:1" fill="#180874" d="M 134.5,7.5 C 145.04,8.47472 155.373,10.4747 165.5,13.5C 188.358,21.3617 207.358,34.695 222.5,53.5C 237.507,72.8683 245.84,94.8683 247.5,119.5C 248.329,142.687 243.663,164.687 233.5,185.5C 228.585,193.09 223.252,200.423 217.5,207.5C 209.688,215.989 201.022,223.323 191.5,229.5C 178.967,237.007 165.634,242.34 151.5,245.5C 144.842,246.24 138.175,246.906 131.5,247.5C 127.5,247.5 123.5,247.5 119.5,247.5C 115.802,247.448 112.135,247.114 108.5,246.5C 103.18,245.037 97.847,243.704 92.5,242.5C 86.3425,240.559 80.3425,238.226 74.5,235.5C 67.6602,232.25 61.3269,228.25 55.5,223.5C 48.8687,218.204 42.5354,212.537 36.5,206.5C 13.5071,177.879 4.17375,145.213 8.5,108.5C 10.8104,95.2378 15.1437,82.5711 21.5,70.5C 23.4854,67.2024 25.4854,63.8691 27.5,60.5C 31.8032,55.1912 36.1366,49.8579 40.5,44.5C 44.5259,40.8051 48.5259,37.1384 52.5,33.5C 56.5383,30.4884 60.5383,27.4884 64.5,24.5C 76.5662,17.7936 89.2328,12.7936 102.5,9.5C 113.086,7.80641 123.753,7.13975 134.5,7.5 Z"/></g>
<g><path style="opacity:1" fill="#795fe7" d="M 138.5,12.5 C 134.116,12.1744 129.783,12.5078 125.5,13.5C 127.229,19.2847 129.229,24.9513 131.5,30.5C 129.545,29.6765 127.545,29.5099 125.5,30C 121.139,32.5117 116.806,35.0117 112.5,37.5C 108.045,30.5175 104.711,22.8508 102.5,14.5C 106.264,13.1682 110.264,12.3349 114.5,12C 122.677,11.1772 130.677,11.3439 138.5,12.5 Z"/></g>
<g><path style="opacity:1" fill="#8e5dee" d="M 138.5,12.5 C 146.969,12.5765 154.969,14.2431 162.5,17.5C 161.325,17.281 160.325,17.6143 159.5,18.5C 164.038,30.7821 168.371,43.1154 172.5,55.5C 158.565,47.5559 144.898,39.2225 131.5,30.5C 129.229,24.9513 127.229,19.2847 125.5,13.5C 129.783,12.5078 134.116,12.1744 138.5,12.5 Z"/></g>
<g><path style="opacity:1" fill="#6e61e5" d="M 102.5,14.5 C 104.711,22.8508 108.045,30.5175 112.5,37.5C 105.704,42.0698 98.7036,46.4031 91.5,50.5C 90.7814,47.9275 89.7814,45.4275 88.5,43C 89.1667,42.6667 89.8333,42.3333 90.5,42C 88.893,40.5947 87.5597,38.928 86.5,37C 86.6448,36.228 86.9781,35.5613 87.5,35C 85.9278,32.962 84.9278,30.6287 84.5,28C 84.8333,27.6667 85.1667,27.3333 85.5,27C 82.5667,25.6133 80.9001,23.7799 80.5,21.5C 87.4338,17.9668 94.7671,15.6334 102.5,14.5 Z"/></g>
<g><path style="opacity:0.897" fill="#596fe4" d="M 62.5,16.5 C 63.7736,18.9925 64.4403,21.6592 64.5,24.5C 60.5383,27.4884 56.5383,30.4884 52.5,33.5C 52.5946,30.3033 51.9279,27.3033 50.5,24.5C 54.205,21.4744 58.205,18.8077 62.5,16.5 Z"/></g>
<g><path style="opacity:1" fill="#6265e3" d="M 80.5,21.5 C 80.9001,23.7799 82.5667,25.6133 85.5,27C 85.1667,27.3333 84.8333,27.6667 84.5,28C 84.9278,30.6287 85.9278,32.962 87.5,35C 86.9781,35.5613 86.6448,36.228 86.5,37C 87.5597,38.928 88.893,40.5947 90.5,42C 89.8333,42.3333 89.1667,42.6667 88.5,43C 89.7814,45.4275 90.7814,47.9275 91.5,50.5C 86.8698,53.4864 82.2031,56.4864 77.5,59.5C 74.6014,49.1296 70.9347,39.1296 66.5,29.5C 70.8377,26.3289 75.5044,23.6623 80.5,21.5 Z"/></g>
<g><path style="opacity:0.949" fill="#a859f4" d="M 160.5,3.5 C 182.694,8.7565 201.694,19.4232 217.5,35.5C 216.065,37.665 216.731,39.165 219.5,40C 219.043,40.414 218.709,40.914 218.5,41.5C 220.239,44.3641 221.906,47.1974 223.5,50C 222.663,51.0113 222.33,52.1779 222.5,53.5C 207.358,34.695 188.358,21.3617 165.5,13.5C 163.918,10.2459 161.918,7.24585 159.5,4.5C 159.624,3.89333 159.957,3.55999 160.5,3.5 Z"/></g>
<g><path style="opacity:1" fill="#170773" d="M 131.5,30.5 C 144.898,39.2225 158.565,47.5559 172.5,55.5C 177.833,59.1667 183.167,62.8333 188.5,66.5C 188.5,87.1667 188.5,107.833 188.5,128.5C 185.46,129.68 182.794,131.347 180.5,133.5C 167.68,139.407 155.347,146.074 143.5,153.5C 138.728,155.72 134.062,158.22 129.5,161C 127.455,161.49 125.455,161.323 123.5,160.5C 117.366,156.596 111.032,152.929 104.5,149.5C 98.2978,145.899 91.9644,142.566 85.5,139.5C 79.2981,135.567 72.9647,131.9 66.5,128.5C 66.167,107.489 66.5003,86.4894 67.5,65.5C 70.8611,63.4887 74.1944,61.4887 77.5,59.5C 82.2031,56.4864 86.8698,53.4864 91.5,50.5C 98.7036,46.4031 105.704,42.0698 112.5,37.5C 116.806,35.0117 121.139,32.5117 125.5,30C 127.545,29.5099 129.545,29.6765 131.5,30.5 Z"/></g>
<g><path style="opacity:1" fill="#a45bf5" d="M 188.5,29.5 C 193.88,31.8545 198.546,35.1879 202.5,39.5C 201.903,39.7352 201.57,40.2352 201.5,41C 214.061,76.7038 226.727,112.037 239.5,147C 240.094,147.464 240.761,147.631 241.5,147.5C 240.304,153.952 238.637,160.285 236.5,166.5C 219.698,121.06 203.031,75.5596 186.5,30C 187.094,29.5357 187.761,29.369 188.5,29.5 Z"/></g>
<g><path style="opacity:0.953" fill="#507ae6" d="M 50.5,24.5 C 51.9279,27.3033 52.5946,30.3033 52.5,33.5C 48.5259,37.1384 44.5259,40.8051 40.5,44.5C 40.8624,40.919 39.8624,37.919 37.5,35.5C 41.5149,31.4874 45.8482,27.8207 50.5,24.5 Z"/></g>
<g><path style="opacity:1" fill="#556cdf" d="M 66.5,29.5 C 70.9347,39.1296 74.6014,49.1296 77.5,59.5C 74.1944,61.4887 70.8611,63.4887 67.5,65.5C 66.5003,86.4894 66.167,107.489 66.5,128.5C 66.1667,128.5 65.8333,128.5 65.5,128.5C 65.5,127.5 65.5,126.5 65.5,125.5C 65.5,119.5 65.5,113.5 65.5,107.5C 65.6666,93.8293 65.4999,80.1626 65,66.5C 62.4873,58.7842 59.8207,51.1175 57,43.5C 56.4506,41.2404 55.284,39.5738 53.5,38.5C 57.3021,34.7629 61.6355,31.7629 66.5,29.5 Z"/></g>
<g><path style="opacity:0.914" fill="#b259f8" d="M 217.5,35.5 C 238.098,56.0277 250.765,80.6944 255.5,109.5C 255.5,121.5 255.5,133.5 255.5,145.5C 254.607,149.191 253.607,152.858 252.5,156.5C 252.055,151.663 250.888,146.996 249,142.5C 248.829,134.656 248.329,126.989 247.5,119.5C 245.84,94.8683 237.507,72.8683 222.5,53.5C 222.33,52.1779 222.663,51.0113 223.5,50C 221.906,47.1974 220.239,44.3641 218.5,41.5C 218.709,40.914 219.043,40.414 219.5,40C 216.731,39.165 216.065,37.665 217.5,35.5 Z"/></g>
<g><path style="opacity:1" fill="#805fea" d="M 159.5,138.5 C 157.821,137 156.488,135.167 155.5,133C 145.426,103.272 134.759,73.4382 123.5,43.5C 124.242,41.5742 125.242,39.7409 126.5,38C 127.449,37.3828 128.282,37.5494 129,38.5C 146.833,67.6667 164.667,96.8333 182.5,126C 175.099,130.7 167.432,134.866 159.5,138.5 Z"/></g>
<g><path style="opacity:1" fill="#aa5af6" d="M 202.5,39.5 C 235.218,68.2884 248.218,104.288 241.5,147.5C 240.761,147.631 240.094,147.464 239.5,147C 226.727,112.037 214.061,76.7038 201.5,41C 201.57,40.2352 201.903,39.7352 202.5,39.5 Z"/></g>
<g><path style="opacity:0.906" fill="#4889eb" d="M 37.5,35.5 C 39.8624,37.919 40.8624,40.919 40.5,44.5C 36.1366,49.8579 31.8032,55.1912 27.5,60.5C 26.8991,57.0321 25.8991,53.6988 24.5,50.5C 28.489,45.1793 32.8223,40.1793 37.5,35.5 Z"/></g>
<g><path style="opacity:1" fill="#527dea" d="M 53.5,38.5 C 55.284,39.5738 56.4506,41.2404 57,43.5C 59.8207,51.1175 62.4873,58.7842 65,66.5C 65.4999,80.1626 65.6666,93.8293 65.5,107.5C 57.8214,88.8296 50.8214,69.4962 44.5,49.5C 43.5,49.5 42.5,49.5 41.5,49.5C 44.8744,45.1245 48.8744,41.4578 53.5,38.5 Z"/></g>
<g><path style="opacity:1" fill="#895deb" d="M 134.5,38.5 C 150.111,47.9776 165.778,57.4776 181.5,67C 175.833,70.6667 170.167,74.3333 164.5,78C 162.956,79.1871 161.289,79.5205 159.5,79C 150.769,65.6952 142.435,52.1952 134.5,38.5 Z"/></g>
<g><path style="opacity:1" fill="#4c86ec" d="M 41.5,49.5 C 42.5,49.5 43.5,49.5 44.5,49.5C 50.8214,69.4962 57.8214,88.8296 65.5,107.5C 65.5,113.5 65.5,119.5 65.5,125.5C 64.2502,125.423 63.4169,124.756 63,123.5C 55.4654,101.73 47.6321,80.0632 39.5,58.5C 38.6431,57.5748 37.6431,56.9081 36.5,56.5C 37.7536,53.9066 39.4202,51.5732 41.5,49.5 Z"/></g>
<g><path style="opacity:0.922" fill="#4095ed" d="M 24.5,50.5 C 25.8991,53.6988 26.8991,57.0321 27.5,60.5C 25.4854,63.8691 23.4854,67.2024 21.5,70.5C 20.0541,68.4204 19.0541,66.0871 18.5,63.5C 18.0431,62.7025 17.3764,62.3691 16.5,62.5C 18.8077,58.205 21.4744,54.205 24.5,50.5 Z"/></g>
<g><path style="opacity:1" fill="#7561e8" d="M 123.5,43.5 C 134.759,73.4382 145.426,103.272 155.5,133C 156.488,135.167 157.821,137 159.5,138.5C 153.83,142.337 147.83,145.67 141.5,148.5C 139.472,145.366 137.806,141.866 136.5,138C 136.833,137.667 137.167,137.333 137.5,137C 135.224,135.97 134.557,134.47 135.5,132.5C 132.695,127.176 130.862,121.843 130,116.5C 129.667,116.833 129.333,117.167 129,117.5C 127.358,112.903 125.524,108.403 123.5,104C 123.618,99.006 121.951,94.006 118.5,89C 119.634,87.984 119.301,87.3173 117.5,87C 117.833,86 118.167,85 118.5,84C 117.036,80.3203 115.202,76.8203 113,73.5C 112.316,72.2161 112.483,71.0495 113.5,70C 111.771,68.2111 111.104,66.0444 111.5,63.5C 115,56.4938 119,49.8272 123.5,43.5 Z"/></g>
<g><path style="opacity:1" fill="#4688e9" d="M 36.5,56.5 C 37.6431,56.9081 38.6431,57.5748 39.5,58.5C 47.6321,80.0632 55.4654,101.73 63,123.5C 63.4169,124.756 64.2502,125.423 65.5,125.5C 65.5,126.5 65.5,127.5 65.5,128.5C 66.1576,131.979 67.491,135.146 69.5,138C 68.5842,138.278 67.9175,138.778 67.5,139.5C 66.5036,155.658 66.1702,171.991 66.5,188.5C 65.5093,182.021 65.176,175.354 65.5,168.5C 65.6663,161.825 65.4996,155.158 65,148.5C 55.0158,119.741 44.1825,90.741 32.5,61.5C 33.1237,59.246 34.457,57.5794 36.5,56.5 Z"/></g>
<g><path style="opacity:1" fill="#6562e2" d="M 117.5,39.5 C 119.028,39.5173 119.528,40.184 119,41.5C 110.833,54.5 102.667,67.5 94.5,80.5C 87.5368,76.6994 80.7035,72.6994 74,68.5C 73.3123,67.6683 73.479,67.0016 74.5,66.5C 89.1397,57.8347 103.473,48.8347 117.5,39.5 Z"/></g>
<g><path style="opacity:1" fill="#4591ef" d="M 32.5,61.5 C 44.1825,90.741 55.0158,119.741 65,148.5C 65.4996,155.158 65.6663,161.825 65.5,168.5C 54.1605,139.128 43.3272,109.462 33,79.5C 31.3477,75.8446 29.5144,72.5113 27.5,69.5C 28.3833,66.2957 30.0499,63.6291 32.5,61.5 Z"/></g>
<g><path style="opacity:1" fill="#6c62e5" d="M 111.5,63.5 C 111.104,66.0444 111.771,68.2111 113.5,70C 112.483,71.0495 112.316,72.2161 113,73.5C 115.202,76.8203 117.036,80.3203 118.5,84C 118.167,85 117.833,86 117.5,87C 119.301,87.3173 119.634,87.984 118.5,89C 121.951,94.006 123.618,99.006 123.5,104C 125.524,108.403 127.358,112.903 129,117.5C 129.333,117.167 129.667,116.833 130,116.5C 130.862,121.843 132.695,127.176 135.5,132.5C 134.557,134.47 135.224,135.97 137.5,137C 137.167,137.333 136.833,137.667 136.5,138C 137.806,141.866 139.472,145.366 141.5,148.5C 138.001,150.75 134.335,152.75 130.5,154.5C 128.156,150.493 125.823,146.327 123.5,142C 124.308,141.692 124.975,141.192 125.5,140.5C 125.154,139.304 124.654,139.304 124,140.5C 123.316,139.216 123.483,138.049 124.5,137C 123.833,136.667 123.167,136.333 122.5,136C 121.553,133.522 121.553,131.188 122.5,129C 120.431,128.676 120.098,127.842 121.5,126.5C 120.817,123.539 119.984,123.205 119,125.5C 118.258,122.909 117.758,120.576 117.5,118.5C 113.639,117.402 113.639,116.569 117.5,116C 116.624,114.415 115.291,113.415 113.5,113C 114.956,112.577 115.456,111.744 115,110.5C 111.804,113.538 110.97,113.038 112.5,109C 111.198,106.787 110.198,104.454 109.5,102C 111.878,101.026 111.544,100.359 108.5,100C 109.634,98.984 109.301,98.3173 107.5,98C 109.878,97.0255 109.544,96.3589 106.5,96C 107.167,95.6667 107.833,95.3333 108.5,95C 105.301,93.321 104.967,91.321 107.5,89C 106.285,86.9045 105.451,87.0712 105,89.5C 104.535,88.0692 103.701,86.9025 102.5,86C 103.362,83.3795 103.362,80.5462 102.5,77.5C 105.015,72.457 108.015,67.7904 111.5,63.5 Z"/></g>
<g><path style="opacity:1" fill="#4098f0" d="M 27.5,69.5 C 29.5144,72.5113 31.3477,75.8446 33,79.5C 43.3272,109.462 54.1605,139.128 65.5,168.5C 65.176,175.354 65.5093,182.021 66.5,188.5C 69.1667,190.5 71.8333,192.5 74.5,194.5C 79.2961,208.22 84.2961,221.886 89.5,235.5C 89.3764,236.107 89.0431,236.44 88.5,236.5C 84.2132,235.352 80.2132,233.685 76.5,231.5C 77.6491,231.209 78.3158,230.376 78.5,229C 60.8624,181.091 43.3624,132.591 26,83.5C 25.4506,81.2404 24.284,79.5738 22.5,78.5C 23.4097,75.0078 25.0764,72.0078 27.5,69.5 Z"/></g>
<g><path style="opacity:1" fill="#9b5df3" d="M 162.5,17.5 C 171.974,19.9061 180.641,23.9061 188.5,29.5C 187.761,29.369 187.094,29.5357 186.5,30C 203.031,75.5596 219.698,121.06 236.5,166.5C 233.219,175.729 228.886,184.396 223.5,192.5C 221.924,189.648 220.424,186.648 219,183.5C 209.402,156.337 199.735,129.67 190,103.5C 189.831,90.9932 189.331,78.6599 188.5,66.5C 183.167,62.8333 177.833,59.1667 172.5,55.5C 168.371,43.1154 164.038,30.7821 159.5,18.5C 160.325,17.6143 161.325,17.281 162.5,17.5 Z"/></g>
<g><path style="opacity:1" fill="#5a6ee4" d="M 72.5,73.5 C 79.3197,76.7425 85.6531,80.7425 91.5,85.5C 87.7253,92.0665 83.7253,98.3999 79.5,104.5C 77.1107,97.5014 74.6107,90.5014 72,83.5C 71.1925,79.9733 71.3592,76.6399 72.5,73.5 Z"/></g>
<g><path style="opacity:0.914" fill="#35a4f0" d="M 16.5,62.5 C 17.3764,62.3691 18.0431,62.7025 18.5,63.5C 19.0541,66.0871 20.0541,68.4204 21.5,70.5C 15.1437,82.5711 10.8104,95.2378 8.5,108.5C 7.98367,101.434 6.98367,94.4336 5.5,87.5C 7.82504,78.522 11.4917,70.1886 16.5,62.5 Z"/></g>
<g><path style="opacity:1" fill="#3c9ef1" d="M 22.5,78.5 C 24.284,79.5738 25.4506,81.2404 26,83.5C 43.3624,132.591 60.8624,181.091 78.5,229C 78.3158,230.376 77.6491,231.209 76.5,231.5C 73.2402,230.226 70.2402,228.56 67.5,226.5C 68.5862,226.38 69.2528,225.713 69.5,224.5C 68.6102,223.045 68.6102,221.711 69.5,220.5C 67.6894,217.288 66.0227,214.122 64.5,211C 65.0219,210.439 65.3552,209.772 65.5,209C 62.6328,204.021 59.9661,198.521 57.5,192.5C 57.8333,191.833 58.1667,191.167 58.5,190.5C 54.1236,181.165 50.1236,171.665 46.5,162C 47.9509,159.964 47.4509,158.131 45,156.5C 42.8309,149.464 40.3309,142.964 37.5,137C 38.7002,135.048 38.2002,133.548 36,132.5C 35.3828,131.551 35.5494,130.718 36.5,130C 34.1925,129.646 33.8592,128.646 35.5,127C 34.0143,126.749 33.0143,125.415 32.5,123C 32.8333,122.667 33.1667,122.333 33.5,122C 32.3133,119.226 30.9799,116.559 29.5,114C 30.5523,112.284 29.8856,111.284 27.5,111C 27.8333,110 28.1667,109 28.5,108C 26.6992,107.683 26.3659,107.016 27.5,106C 25.3473,103.01 24.014,100.01 23.5,97C 23.8333,96.6667 24.1667,96.3333 24.5,96C 22.9617,94.0679 21.795,91.9012 21,89.5C 20.3292,88.7476 19.4959,88.4142 18.5,88.5C 19.2635,84.8632 20.5968,81.5299 22.5,78.5 Z"/></g>
<g><path style="opacity:1" fill="#6663e3" d="M 102.5,77.5 C 103.362,80.5462 103.362,83.3795 102.5,86C 103.701,86.9025 104.535,88.0692 105,89.5C 105.451,87.0712 106.285,86.9045 107.5,89C 104.967,91.321 105.301,93.321 108.5,95C 107.833,95.3333 107.167,95.6667 106.5,96C 109.544,96.3589 109.878,97.0255 107.5,98C 109.301,98.3173 109.634,98.984 108.5,100C 111.544,100.359 111.878,101.026 109.5,102C 110.198,104.454 111.198,106.787 112.5,109C 110.97,113.038 111.804,113.538 115,110.5C 115.456,111.744 114.956,112.577 113.5,113C 115.291,113.415 116.624,114.415 117.5,116C 113.639,116.569 113.639,117.402 117.5,118.5C 117.758,120.576 118.258,122.909 119,125.5C 119.984,123.205 120.817,123.539 121.5,126.5C 120.098,127.842 120.431,128.676 122.5,129C 121.553,131.188 121.553,133.522 122.5,136C 123.167,136.333 123.833,136.667 124.5,137C 123.483,138.049 123.316,139.216 124,140.5C 124.654,139.304 125.154,139.304 125.5,140.5C 124.975,141.192 124.308,141.692 123.5,142C 125.823,146.327 128.156,150.493 130.5,154.5C 129.739,155.391 128.739,156.058 127.5,156.5C 123.771,154.977 120.438,152.977 117.5,150.5C 111.329,133.316 104.996,116.149 98.5,99C 98.8333,98.6667 99.1667,98.3333 99.5,98C 98.155,95.1005 96.4883,92.6005 94.5,90.5C 96.9301,85.9634 99.5968,81.6301 102.5,77.5 Z"/></g>
<g><path style="opacity:1" fill="#8c5ded" d="M 182.5,72.5 C 183.833,87.5 183.833,102.5 182.5,117.5C 176.221,106.444 169.554,95.6104 162.5,85C 169.027,80.5721 175.693,76.4055 182.5,72.5 Z"/></g>
<g><path style="opacity:1" fill="#5276e4" d="M 72.5,73.5 C 71.3592,76.6399 71.1925,79.9733 72,83.5C 74.6107,90.5014 77.1107,97.5014 79.5,104.5C 77.3166,109.527 74.4832,114.193 71,118.5C 70.1671,103.156 70.3338,87.8225 71.5,72.5C 72.1067,72.6236 72.44,72.9569 72.5,73.5 Z"/></g>
<g><path style="opacity:1" fill="#613bb7" d="M 182.5,72.5 C 182.56,71.9569 182.893,71.6236 183.5,71.5C 184.833,87.1667 184.833,102.833 183.5,118.5C 182.893,118.376 182.56,118.043 182.5,117.5C 183.833,102.5 183.833,87.5 182.5,72.5 Z"/></g>
<g><path style="opacity:1" fill="#6068e4" d="M 94.5,90.5 C 96.4883,92.6005 98.155,95.1005 99.5,98C 99.1667,98.3333 98.8333,98.6667 98.5,99C 104.996,116.149 111.329,133.316 117.5,150.5C 112.016,148.593 107.016,145.927 102.5,142.5C 103.043,142.44 103.376,142.107 103.5,141.5C 99.9314,128.918 95.2648,116.418 89.5,104C 90.4119,102.375 89.7453,101.541 87.5,101.5C 89.5974,97.6277 91.9308,93.961 94.5,90.5 Z"/></g>
<g><path style="opacity:1" fill="#37a4f3" d="M 18.5,88.5 C 19.4959,88.4142 20.3292,88.7476 21,89.5C 21.795,91.9012 22.9617,94.0679 24.5,96C 24.1667,96.3333 23.8333,96.6667 23.5,97C 24.014,100.01 25.3473,103.01 27.5,106C 26.3659,107.016 26.6992,107.683 28.5,108C 28.1667,109 27.8333,110 27.5,111C 29.8856,111.284 30.5523,112.284 29.5,114C 30.9799,116.559 32.3133,119.226 33.5,122C 33.1667,122.333 32.8333,122.667 32.5,123C 33.0143,125.415 34.0143,126.749 35.5,127C 33.8592,128.646 34.1925,129.646 36.5,130C 35.5494,130.718 35.3828,131.551 36,132.5C 38.2002,133.548 38.7002,135.048 37.5,137C 40.3309,142.964 42.8309,149.464 45,156.5C 47.4509,158.131 47.9509,159.964 46.5,162C 50.1236,171.665 54.1236,181.165 58.5,190.5C 58.1667,191.167 57.8333,191.833 57.5,192.5C 59.9661,198.521 62.6328,204.021 65.5,209C 65.3552,209.772 65.0219,210.439 64.5,211C 66.0227,214.122 67.6894,217.288 69.5,220.5C 68.6102,221.711 68.6102,223.045 69.5,224.5C 69.2528,225.713 68.5862,226.38 67.5,226.5C 63.9754,225.241 60.9754,223.241 58.5,220.5C 59.3764,220.631 60.0431,220.298 60.5,219.5C 45.8268,179.454 31.1602,139.454 16.5,99.5C 15.8243,100.602 15.1577,101.602 14.5,102.5C 14.9205,97.4713 16.2538,92.8047 18.5,88.5 Z"/></g>
<g><path style="opacity:1" fill="#34aaf4" d="M 58.5,220.5 C 53.8482,217.179 49.5149,213.513 45.5,209.5C 46.4959,209.414 47.3292,209.748 48,210.5C 47.5939,204.279 45.7606,198.445 42.5,193C 33.5916,166.269 24.0916,139.436 14,112.5C 13.6174,113.056 13.1174,113.389 12.5,113.5C 12.4299,109.575 13.0966,105.909 14.5,102.5C 15.1577,101.602 15.8243,100.602 16.5,99.5C 31.1602,139.454 45.8268,179.454 60.5,219.5C 60.0431,220.298 59.3764,220.631 58.5,220.5 Z"/></g>
<g><path style="opacity:1" fill="#5a70e5" d="M 87.5,101.5 C 89.7453,101.541 90.4119,102.375 89.5,104C 95.2648,116.418 99.9314,128.918 103.5,141.5C 103.376,142.107 103.043,142.44 102.5,142.5C 97.9098,140.561 93.5765,138.227 89.5,135.5C 90.0967,135.265 90.4301,134.765 90.5,134C 87.9624,126.201 84.9624,118.701 81.5,111.5C 83.1023,107.905 85.1023,104.571 87.5,101.5 Z"/></g>
<g><path style="opacity:1" fill="#905ced" d="M 188.5,66.5 C 189.331,78.6599 189.831,90.9932 190,103.5C 199.735,129.67 209.402,156.337 219,183.5C 220.424,186.648 221.924,189.648 223.5,192.5C 221.518,195.81 219.185,198.81 216.5,201.5C 215.503,201.53 214.836,201.03 214.5,200C 206.237,175.983 197.571,152.15 188.5,128.5C 188.5,107.833 188.5,87.1667 188.5,66.5 Z"/></g>
<g><path style="opacity:1" fill="#5377e5" d="M 81.5,111.5 C 84.9624,118.701 87.9624,126.201 90.5,134C 90.4301,134.765 90.0967,135.265 89.5,135.5C 83.3592,132.931 77.6926,129.598 72.5,125.5C 75.5242,120.769 78.5242,116.102 81.5,111.5 Z"/></g>
<g><path style="opacity:1" fill="#2eb0f4" d="M 45.5,209.5 C 19.7551,182.599 8.75512,150.599 12.5,113.5C 13.1174,113.389 13.6174,113.056 14,112.5C 24.0916,139.436 33.5916,166.269 42.5,193C 45.7606,198.445 47.5939,204.279 48,210.5C 47.3292,209.748 46.4959,209.414 45.5,209.5 Z"/></g>
<g><path style="opacity:0.913" fill="#29b7f6" d="M 5.5,87.5 C 6.98367,94.4336 7.98367,101.434 8.5,108.5C 4.17375,145.213 13.5071,177.879 36.5,206.5C 38.9922,212.069 40.3255,217.403 40.5,222.5C 18.1689,201.507 4.5022,175.841 -0.5,145.5C -0.5,133.5 -0.5,121.5 -0.5,109.5C 0.873181,102.008 2.87318,94.675 5.5,87.5 Z"/></g>
<g><path style="opacity:1" fill="#8a5eee" d="M 188.5,128.5 C 197.571,152.15 206.237,175.983 214.5,200C 214.836,201.03 215.503,201.53 216.5,201.5C 211.833,206.833 206.833,211.833 201.5,216.5C 199.112,215.781 197.612,214.115 197,211.5C 194.867,204.769 192.534,198.102 190,191.5C 189.832,174.328 189.332,157.328 188.5,140.5C 186.653,139.427 184.653,139.427 182.5,140.5C 181.076,138.485 180.41,136.152 180.5,133.5C 182.794,131.347 185.46,129.68 188.5,128.5 Z"/></g>
<g><path style="opacity:1" fill="#4d7de5" d="M 65.5,128.5 C 65.8333,128.5 66.1667,128.5 66.5,128.5C 72.9647,131.9 79.2981,135.567 85.5,139.5C 85.8954,142.686 86.8954,145.686 88.5,148.5C 88.3764,149.107 88.0431,149.44 87.5,149.5C 81.0517,145.716 74.3851,142.382 67.5,139.5C 67.9175,138.778 68.5842,138.278 69.5,138C 67.491,135.146 66.1576,131.979 65.5,128.5 Z"/></g>
<g><path style="opacity:1" fill="#150773" d="M 67.5,139.5 C 74.3851,142.382 81.0517,145.716 87.5,149.5C 92.9666,153.071 98.6332,156.404 104.5,159.5C 111.329,163.749 118.329,167.749 125.5,171.5C 126.601,172.598 127.934,172.765 129.5,172C 135.231,168.475 140.897,164.975 146.5,161.5C 158.836,155.001 170.836,148.001 182.5,140.5C 184.653,139.427 186.653,139.427 188.5,140.5C 188.667,156.503 188.5,172.503 188,188.5C 185.012,190.399 182.179,192.399 179.5,194.5C 169.826,199.667 160.492,205.334 151.5,211.5C 145.878,214.472 140.545,217.805 135.5,221.5C 132.607,223.114 129.607,224.447 126.5,225.5C 122.5,223.167 118.5,220.833 114.5,218.5C 110.664,216.416 106.997,214.083 103.5,211.5C 100.167,209.5 96.8333,207.5 93.5,205.5C 87.3028,201.569 80.9695,197.902 74.5,194.5C 71.8333,192.5 69.1667,190.5 66.5,188.5C 66.1702,171.991 66.5036,155.658 67.5,139.5 Z"/></g>
<g><path style="opacity:1" fill="#5571e3" d="M 85.5,139.5 C 91.9644,142.566 98.2978,145.899 104.5,149.5C 104.647,152.443 105.313,155.276 106.5,158C 106.164,159.03 105.497,159.53 104.5,159.5C 98.6332,156.404 92.9666,153.071 87.5,149.5C 88.0431,149.44 88.3764,149.107 88.5,148.5C 86.8954,145.686 85.8954,142.686 85.5,139.5 Z"/></g>
<g><path style="opacity:1" fill="#765ee5" d="M 180.5,133.5 C 180.41,136.152 181.076,138.485 182.5,140.5C 170.836,148.001 158.836,155.001 146.5,161.5C 144.307,159.478 143.307,156.811 143.5,153.5C 155.347,146.074 167.68,139.407 180.5,133.5 Z"/></g>
<g><path style="opacity:1" fill="#593db5" d="M 182.5,150.5 C 182.56,149.957 182.893,149.624 183.5,149.5C 184.833,160.5 184.833,171.5 183.5,182.5C 182.893,182.376 182.56,182.043 182.5,181.5C 183.833,171.167 183.833,160.833 182.5,150.5 Z"/></g>
<g><path style="opacity:1" fill="#4686e7" d="M 70.5,149.5 C 76.7588,156.501 82.4255,164.001 87.5,172C 87.3552,172.772 87.0219,173.439 86.5,174C 81.2287,177.133 75.8953,179.967 70.5,182.5C 70.5,171.5 70.5,160.5 70.5,149.5 Z"/></g>
<g><path style="opacity:1" fill="#5d66e0" d="M 104.5,149.5 C 111.032,152.929 117.366,156.596 123.5,160.5C 122.624,160.369 121.957,160.702 121.5,161.5C 122.92,164.439 124.253,167.772 125.5,171.5C 118.329,167.749 111.329,163.749 104.5,159.5C 105.497,159.53 106.164,159.03 106.5,158C 105.313,155.276 104.647,152.443 104.5,149.5 Z"/></g>
<g><path style="opacity:1" fill="#7f5ee9" d="M 182.5,150.5 C 183.833,160.833 183.833,171.167 182.5,181.5C 176.976,178.908 171.976,175.575 167.5,171.5C 172.264,164.295 177.264,157.295 182.5,150.5 Z"/></g>
<g><path style="opacity:1" fill="#5276e4" d="M 101.5,163.5 C 105.504,175.178 109.504,186.844 113.5,198.5C 100.646,182.746 88.8131,166.413 78,149.5C 85.7784,154.304 93.6117,158.971 101.5,163.5 Z"/></g>
<g><path style="opacity:1" fill="#6661e1" d="M 143.5,153.5 C 143.307,156.811 144.307,159.478 146.5,161.5C 140.897,164.975 135.231,168.475 129.5,172C 127.934,172.765 126.601,172.598 125.5,171.5C 124.253,167.772 122.92,164.439 121.5,161.5C 121.957,160.702 122.624,160.369 123.5,160.5C 125.455,161.323 127.455,161.49 129.5,161C 134.062,158.22 138.728,155.72 143.5,153.5 Z"/></g>
<g><path style="opacity:1" fill="#6e60e4" d="M 145.5,193.5 C 144.312,192.952 143.145,192.619 142,192.5C 141.316,191.216 141.483,190.049 142.5,189C 138.309,183.456 136.975,177.956 138.5,172.5C 150.799,164.522 163.466,157.355 176.5,151C 166.28,165.285 155.946,179.451 145.5,193.5 Z"/></g>
<g><path style="opacity:1" fill="#5b6fe5" d="M 101.5,163.5 C 107.997,166.914 114.33,170.581 120.5,174.5C 124.5,186.5 128.5,198.5 132.5,210.5C 131.928,212.255 131.094,213.922 130,215.5C 129.163,217.007 127.996,217.507 126.5,217C 121.533,211.212 117.199,205.046 113.5,198.5C 109.504,186.844 105.504,175.178 101.5,163.5 Z"/></g>
<g><path style="opacity:0.92" fill="#a15af2" d="M 247.5,119.5 C 248.329,126.989 248.829,134.656 249,142.5C 250.888,146.996 252.055,151.663 252.5,156.5C 249.925,171.247 244.259,184.58 235.5,196.5C 234.859,195.518 234.193,194.518 233.5,193.5C 233.782,191.013 233.782,188.347 233.5,185.5C 243.663,164.687 248.329,142.687 247.5,119.5 Z"/></g>
<g><path style="opacity:1" fill="#6265e3" d="M 138.5,172.5 C 136.975,177.956 138.309,183.456 142.5,189C 141.483,190.049 141.316,191.216 142,192.5C 143.145,192.619 144.312,192.952 145.5,193.5C 141.519,199.475 137.186,205.142 132.5,210.5C 128.5,198.5 124.5,186.5 120.5,174.5C 122.816,175.806 125.15,177.139 127.5,178.5C 131.061,176.221 134.727,174.221 138.5,172.5 Z"/></g>
<g><path style="opacity:1" fill="#4e7ae4" d="M 96.5,201.5 C 97.3764,201.631 98.0431,201.298 98.5,200.5C 96.1019,193.473 93.6019,186.473 91,179.5C 90.3292,178.748 89.4959,178.414 88.5,178.5C 89.2545,176.534 90.4212,176.2 92,177.5C 100.833,189.833 109.667,202.167 118.5,214.5C 110.858,211.301 103.525,206.968 96.5,201.5 Z"/></g>
<g><path style="opacity:1" fill="#4886e9" d="M 88.5,178.5 C 89.4959,178.414 90.3292,178.748 91,179.5C 93.6019,186.473 96.1019,193.473 98.5,200.5C 98.0431,201.298 97.3764,201.631 96.5,201.5C 88.7224,197.107 81.0558,192.44 73.5,187.5C 78.0225,183.737 83.0225,180.737 88.5,178.5 Z"/></g>
<g><path style="opacity:1" fill="#7c5de6" d="M 188.5,140.5 C 189.332,157.328 189.832,174.328 190,191.5C 192.534,198.102 194.867,204.769 197,211.5C 197.612,214.115 199.112,215.781 201.5,216.5C 198.403,219.888 194.736,222.555 190.5,224.5C 188.883,222.879 187.716,220.879 187,218.5C 184.191,210.573 181.691,202.573 179.5,194.5C 182.179,192.399 185.012,190.399 188,188.5C 188.5,172.503 188.667,156.503 188.5,140.5 Z"/></g>
<g><path style="opacity:1" fill="#6c5fe2" d="M 163.5,176.5 C 169.855,179.346 175.855,182.846 181.5,187C 166.813,196.83 151.813,205.83 136.5,214C 145.719,201.621 154.719,189.121 163.5,176.5 Z"/></g>
<g><path style="opacity:0.909" fill="#925cee" d="M 233.5,185.5 C 233.782,188.347 233.782,191.013 233.5,193.5C 234.193,194.518 234.859,195.518 235.5,196.5C 231.598,203.401 226.931,209.734 221.5,215.5C 220.624,215.631 219.957,215.298 219.5,214.5C 218.675,212.199 218.008,209.865 217.5,207.5C 223.252,200.423 228.585,193.09 233.5,185.5 Z"/></g>
<g><path style="opacity:1" fill="#7261e7" d="M 179.5,194.5 C 181.691,202.573 184.191,210.573 187,218.5C 187.716,220.879 188.883,222.879 190.5,224.5C 181.322,230.753 171.322,235.42 160.5,238.5C 159.391,235.571 158.058,232.738 156.5,230C 156.616,228.732 156.949,227.398 157.5,226C 156.874,225.25 156.374,224.416 156,223.5C 155.667,223.833 155.333,224.167 155,224.5C 154.727,222.899 154.227,221.399 153.5,220C 154.299,218.251 153.632,216.918 151.5,216C 152.167,215.667 152.833,215.333 153.5,215C 152.695,213.887 152.028,212.721 151.5,211.5C 160.492,205.334 169.826,199.667 179.5,194.5 Z"/></g>
<g><path style="opacity:1" fill="#478ded" d="M 74.5,194.5 C 80.9695,197.902 87.3028,201.569 93.5,205.5C 97.1909,216.299 100.858,226.799 104.5,237C 104.355,237.772 104.022,238.439 103.5,239C 101.866,239.494 100.199,239.66 98.5,239.5C 94.8379,239.277 91.5046,238.277 88.5,236.5C 89.0431,236.44 89.3764,236.107 89.5,235.5C 84.2961,221.886 79.2961,208.22 74.5,194.5 Z"/></g>
<g><path style="opacity:1" fill="#4c85ea" d="M 93.5,205.5 C 96.8333,207.5 100.167,209.5 103.5,211.5C 106.496,221.489 109.496,231.489 112.5,241.5C 110.833,241.5 109.167,241.5 107.5,241.5C 104.219,241.58 101.219,240.913 98.5,239.5C 100.199,239.66 101.866,239.494 103.5,239C 104.022,238.439 104.355,237.772 104.5,237C 100.858,226.799 97.1909,216.299 93.5,205.5 Z"/></g>
<g><path style="opacity:1" fill="#6463e2" d="M 151.5,211.5 C 152.028,212.721 152.695,213.887 153.5,215C 152.833,215.333 152.167,215.667 151.5,216C 153.632,216.918 154.299,218.251 153.5,220C 154.227,221.399 154.727,222.899 155,224.5C 155.333,224.167 155.667,223.833 156,223.5C 156.374,224.416 156.874,225.25 157.5,226C 156.949,227.398 156.616,228.732 156.5,230C 158.058,232.738 159.391,235.571 160.5,238.5C 155.019,240.57 149.352,241.903 143.5,242.5C 143.611,241.883 143.944,241.383 144.5,241C 142.276,236.328 140.442,231.495 139,226.5C 138.451,224.24 137.284,222.574 135.5,221.5C 140.545,217.805 145.878,214.472 151.5,211.5 Z"/></g>
<g><path style="opacity:0.913" fill="#2eaff4" d="M 36.5,206.5 C 42.5354,212.537 48.8687,218.204 55.5,223.5C 56.4876,227.484 57.4876,231.484 58.5,235.5C 51.9595,231.966 45.9595,227.633 40.5,222.5C 40.3255,217.403 38.9922,212.069 36.5,206.5 Z"/></g>
<g><path style="opacity:1" fill="#507ee9" d="M 103.5,211.5 C 106.997,214.083 110.664,216.416 114.5,218.5C 116.361,226.415 119.028,234.081 122.5,241.5C 119.914,242.48 117.247,242.813 114.5,242.5C 111.941,242.802 109.607,242.468 107.5,241.5C 109.167,241.5 110.833,241.5 112.5,241.5C 109.496,231.489 106.496,221.489 103.5,211.5 Z"/></g>
<g><path style="opacity:0.919" fill="#845eea" d="M 217.5,207.5 C 218.008,209.865 218.675,212.199 219.5,214.5C 219.957,215.298 220.624,215.631 221.5,215.5C 213.607,224.733 204.274,232.067 193.5,237.5C 193.037,234.779 192.371,232.112 191.5,229.5C 201.022,223.323 209.688,215.989 217.5,207.5 Z"/></g>
<g><path style="opacity:1" fill="#5c6de5" d="M 135.5,221.5 C 137.284,222.574 138.451,224.24 139,226.5C 140.442,231.495 142.276,236.328 144.5,241C 143.944,241.383 143.611,241.883 143.5,242.5C 141.167,242.5 138.833,242.5 136.5,242.5C 134.621,242.607 134.288,242.107 135.5,241C 133.875,238.89 132.542,236.557 131.5,234C 131.833,233.667 132.167,233.333 132.5,233C 130.984,231.103 130.317,228.936 130.5,226.5C 128.901,226.768 127.568,226.434 126.5,225.5C 129.607,224.447 132.607,223.114 135.5,221.5 Z"/></g>
<g><path style="opacity:1" fill="#5574e5" d="M 114.5,218.5 C 118.5,220.833 122.5,223.167 126.5,225.5C 127.568,226.434 128.901,226.768 130.5,226.5C 130.317,228.936 130.984,231.103 132.5,233C 132.167,233.333 131.833,233.667 131.5,234C 132.542,236.557 133.875,238.89 135.5,241C 134.288,242.107 134.621,242.607 136.5,242.5C 129.167,243.833 121.833,243.833 114.5,242.5C 117.247,242.813 119.914,242.48 122.5,241.5C 119.028,234.081 116.361,226.415 114.5,218.5 Z"/></g>
<g><path style="opacity:0.895" fill="#36a4f1" d="M 55.5,223.5 C 61.3269,228.25 67.6602,232.25 74.5,235.5C 74.7646,239.13 76.0979,242.297 78.5,245C 77.944,245.383 77.6107,245.883 77.5,246.5C 70.6402,243.576 64.3069,239.909 58.5,235.5C 57.4876,231.484 56.4876,227.484 55.5,223.5 Z"/></g>
<g><path style="opacity:0.925" fill="#6c61e3" d="M 191.5,229.5 C 192.371,232.112 193.037,234.779 193.5,237.5C 181.829,244.997 169.162,250.33 155.5,253.5C 154.677,250.52 153.343,247.853 151.5,245.5C 165.634,242.34 178.967,237.007 191.5,229.5 Z"/></g>
<g><path style="opacity:0.925" fill="#3e98ee" d="M 74.5,235.5 C 80.3425,238.226 86.3425,240.559 92.5,242.5C 92.8042,245.579 93.8042,248.413 95.5,251C 95.2716,251.399 94.9382,251.565 94.5,251.5C 88.6454,250.437 82.9787,248.77 77.5,246.5C 77.6107,245.883 77.944,245.383 78.5,245C 76.0979,242.297 74.7646,239.13 74.5,235.5 Z"/></g>
<g><path style="opacity:0.926" fill="#468beb" d="M 92.5,242.5 C 97.847,243.704 103.18,245.037 108.5,246.5C 109.45,249.892 110.45,252.892 111.5,255.5C 110.833,255.5 110.167,255.5 109.5,255.5C 104.44,254.421 99.4402,253.088 94.5,251.5C 94.9382,251.565 95.2716,251.399 95.5,251C 93.8042,248.413 92.8042,245.579 92.5,242.5 Z"/></g>
<g><path style="opacity:0.944" fill="#5d6ae3" d="M 151.5,245.5 C 153.343,247.853 154.677,250.52 155.5,253.5C 151.96,253.753 148.627,254.419 145.5,255.5C 143.5,255.5 141.5,255.5 139.5,255.5C 139.414,254.504 139.748,253.671 140.5,253C 139.299,252.097 138.465,250.931 138,249.5C 135.723,248.883 133.556,248.216 131.5,247.5C 138.175,246.906 144.842,246.24 151.5,245.5 Z"/></g>
<g><path style="opacity:0.997" fill="#5081eb" d="M 108.5,246.5 C 112.135,247.114 115.802,247.448 119.5,247.5C 121.265,248.461 123.265,248.795 125.5,248.5C 125.993,250.806 126.326,253.139 126.5,255.5C 121.5,255.5 116.5,255.5 111.5,255.5C 110.45,252.892 109.45,249.892 108.5,246.5 Z"/></g>
<g><path style="opacity:0.994" fill="#5575e5" d="M 119.5,247.5 C 123.5,247.5 127.5,247.5 131.5,247.5C 133.556,248.216 135.723,248.883 138,249.5C 138.465,250.931 139.299,252.097 140.5,253C 139.748,253.671 139.414,254.504 139.5,255.5C 135.167,255.5 130.833,255.5 126.5,255.5C 126.326,253.139 125.993,250.806 125.5,248.5C 123.265,248.795 121.265,248.461 119.5,247.5 Z"/></g>
</svg>
